<svg width="529" height="500" viewBox="0 0 529 500" fill="none" xmlns="http://www.w3.org/2000/svg">
<g filter="url(#filter0_d)">
<path fill-rule="evenodd" clip-rule="evenodd" d="M247.945 87.8522C285.892 94.5426 318.674 111.356 353.021 127.054C388.933 143.466 428.205 155.216 454.529 182.266C483.449 211.983 507.431 248.145 508.924 287.253C510.431 326.729 489.325 364.596 462.703 396.393C437.587 426.39 401.324 447.005 362.585 462.034C326.47 476.045 287.368 481.36 247.945 479.709C209.747 478.11 174.457 466.205 139.434 452.689C100.833 437.793 57.7872 426.451 32.6926 396.644C6.7546 365.835 -1.24205 325.579 0.151849 287.253C1.52313 249.548 21.28 215.547 40.5051 181.831C60.726 146.369 75.3087 103.315 115.389 85.1568C155.368 67.0447 203.858 80.0791 247.945 87.8522Z" fill="#FB9300"/>
</g>
<path d="M320.101 321.387L323.286 315.639L332.31 321.387L336.557 331.316L338.68 345.426L345.581 365.284L352.482 380.961L354.606 388.277L352.482 392.981L345.581 400.819L335.495 405H330.718L318.508 395.071L295.151 377.303L281.88 369.987L274.448 363.716L271.794 359.013L270.201 352.742L284.003 349.606L297.805 342.29L312.138 330.794L320.101 321.387Z" fill="#E80151"/>
<path d="M245.782 339.677H242.597V338.11L253.745 334.452L262.769 330.794L283.472 317.729L299.929 304.665L312.138 293.69L318.508 285.852L321.693 302.052V304.665L328.594 317.729V321.91L324.878 329.748L312.138 343.335L293.558 355.355L281.88 360.058L276.041 361.103L271.794 360.058L268.609 358.49L253.745 343.335H251.091L245.782 339.677Z" fill="#383838"/>
<path d="M226.141 343.858L211.808 329.226H223.487L239.412 323.477L255.338 315.639L275.51 302.052L291.435 289.51L302.583 278.013L308.422 270.697L322.755 275.923L324.347 278.013L322.755 283.761L314.792 297.348L299.929 310.935L281.349 325.045L263.3 337.065L245.782 343.858L236.758 345.948H231.45L226.141 343.858Z" fill="#2E2E2E"/>
<path d="M299.929 155.729L275.51 164.09L278.695 169.316L291.435 194.923L301.521 219.484L305.768 234.116L319.57 246.658L322.755 245.09L334.964 240.91L355.136 236.206L364.161 234.116L367.877 229.413L370 223.142V216.871L305.768 155.729H299.929Z" fill="#4B01DA"/>
<path d="M242.597 181.39V186.257L288.449 273.323L296.98 271.7H306.577L315.641 273.323L354.561 288.465H357.76L362.026 284.679L364.692 277.649V273.323L288.449 188.42L247.396 179.768L242.597 181.39Z" fill="#5001E2"/>
<path d="M132.713 255.019H128.466L101.393 302.574V305.71L145.453 400.819L150.761 402.387L160.847 399.252L165.094 395.594L174.118 371.032L184.205 348.561L192.167 336.019L199.599 327.658L205.969 322.432L208.093 319.819L187.92 304.665L150.761 273.31L132.713 255.019Z" fill="#4C01D6"/>
<path d="M64.2338 159.387V155.729H72.7273L89.7143 144.755L117.849 127.51L149.169 106.084L175.18 85.7032L192.167 69.5032L200.13 61.6645H205.969L227.734 78.3871L260.646 117.058L285.065 159.387L297.274 185.516L300.99 194.923V201.716L291.435 189.697L245.252 181.858L241.536 185.516L245.252 191.264L260.646 218.439L274.979 244.045L285.065 263.903L289.312 269.652H297.274H307.36L312.669 272.265L300.99 284.806L270.201 309.368L241.536 325.045L223.487 328.703H215.524L205.969 322.432L208.623 318.774L195.883 309.368L141.737 263.903L131.651 253.974H128.466L124.75 259.2L104.047 236.206L77.5049 194.923L66.3571 169.839L64.2338 163.045V159.387Z" fill="#C3C3C3"/>
<ellipse cx="160.317" cy="179.768" rx="51.4919" ry="45.9871" fill="#646464"/>
<ellipse cx="160.317" cy="179.768" rx="36.0443" ry="32.609" fill="#242424"/>
<path d="M51.4935 5.22581L55.2094 1.56774L58.9253 0H63.1721L76.974 1.56774L100.862 5.22581L127.935 14.6323L156.601 27.6968L182.612 43.8968L199.599 57.4839L200.661 60.0968L194.291 67.9355L174.118 86.2258L130.058 119.671L91.8377 144.232L72.7273 154.684L66.3571 156.252L61.5795 154.684L59.987 152.071L53.086 130.645L46.1851 100.858L43 76.2968V50.6903L46.1851 26.6516L48.8393 12.0194L51.4935 5.22581Z" fill="#383838"/>
<defs>
<filter id="filter0_d" x="0" y="76" width="529" height="424" filterUnits="userSpaceOnUse" color-interpolation-filters="sRGB">
<feFlood flood-opacity="0" result="BackgroundImageFix"/>
<feColorMatrix in="SourceAlpha" type="matrix" values="0 0 0 0 0 0 0 0 0 0 0 0 0 0 0 0 0 0 127 0"/>
<feOffset dx="10" dy="10"/>
<feGaussianBlur stdDeviation="5"/>
<feColorMatrix type="matrix" values="0 0 0 0 0 0 0 0 0 0 0 0 0 0 0 0 0 0 0.5 0"/>
<feBlend mode="normal" in2="BackgroundImageFix" result="effect1_dropShadow"/>
<feBlend mode="normal" in="SourceGraphic" in2="effect1_dropShadow" result="shape"/>
</filter>
</defs>
</svg>
